<mxfile host="app.diagrams.net" modified="2022-12-13T16:38:19.433Z" agent="5.0 (Windows NT 10.0; Win64; x64) AppleWebKit/537.36 (KHTML, like Gecko) Chrome/108.0.0.0 Safari/537.36" etag="xw2KwjERgqxEzS3TXKIl" version="20.6.2" type="github">
  <diagram id="GEJEYPsdO4QtVM7ZrqEz" name="第 1 页">
    <mxGraphModel dx="2626" dy="1122" grid="1" gridSize="10" guides="1" tooltips="1" connect="1" arrows="1" fold="1" page="1" pageScale="1" pageWidth="827" pageHeight="1169" math="0" shadow="0">
      <root>
        <mxCell id="0" />
        <mxCell id="1" parent="0" />
        <mxCell id="k09L36EYwbLVuz7NXzX2-1" value="&lt;font style=&quot;&quot;&gt;&lt;font style=&quot;font-size: 12px;&quot;&gt;客户端&lt;/font&gt;&lt;br&gt;&lt;/font&gt;" style="rounded=0;whiteSpace=wrap;html=1;" parent="1" vertex="1">
          <mxGeometry x="169.5" y="210" width="120" height="60" as="geometry" />
        </mxCell>
        <mxCell id="k09L36EYwbLVuz7NXzX2-2" value="&lt;font style=&quot;font-size: 12px;&quot;&gt;产生&lt;/font&gt;" style="rhombus;whiteSpace=wrap;html=1;fontSize=16;" parent="1" vertex="1">
          <mxGeometry x="190" y="330" width="80" height="80" as="geometry" />
        </mxCell>
        <mxCell id="k09L36EYwbLVuz7NXzX2-4" value="" style="endArrow=none;html=1;rounded=0;fontSize=16;entryX=0.5;entryY=1;entryDx=0;entryDy=0;exitX=0.5;exitY=0;exitDx=0;exitDy=0;" parent="1" source="k09L36EYwbLVuz7NXzX2-2" target="k09L36EYwbLVuz7NXzX2-1" edge="1">
          <mxGeometry width="50" height="50" relative="1" as="geometry">
            <mxPoint x="220" y="370" as="sourcePoint" />
            <mxPoint x="270" y="320" as="targetPoint" />
          </mxGeometry>
        </mxCell>
        <mxCell id="k09L36EYwbLVuz7NXzX2-5" value="1" style="edgeLabel;html=1;align=center;verticalAlign=middle;resizable=0;points=[];fontSize=16;" parent="k09L36EYwbLVuz7NXzX2-4" vertex="1" connectable="0">
          <mxGeometry x="-0.2405" y="1" relative="1" as="geometry">
            <mxPoint as="offset" />
          </mxGeometry>
        </mxCell>
        <mxCell id="k09L36EYwbLVuz7NXzX2-8" style="rounded=0;orthogonalLoop=1;jettySize=auto;html=1;exitX=0.5;exitY=1;exitDx=0;exitDy=0;entryX=0.5;entryY=0;entryDx=0;entryDy=0;endArrow=none;endFill=0;" parent="1" source="k09L36EYwbLVuz7NXzX2-9" target="k09L36EYwbLVuz7NXzX2-1" edge="1">
          <mxGeometry relative="1" as="geometry" />
        </mxCell>
        <mxCell id="k09L36EYwbLVuz7NXzX2-9" value="设定流量" style="rounded=1;whiteSpace=wrap;html=1;" parent="1" vertex="1">
          <mxGeometry x="50" y="140" width="80" height="40" as="geometry" />
        </mxCell>
        <mxCell id="k09L36EYwbLVuz7NXzX2-12" value="网络数据包" style="rounded=0;whiteSpace=wrap;html=1;" parent="1" vertex="1">
          <mxGeometry x="170" y="480" width="120" height="60" as="geometry" />
        </mxCell>
        <mxCell id="k09L36EYwbLVuz7NXzX2-13" value="n" style="endArrow=none;html=1;rounded=0;fontSize=16;entryX=0.5;entryY=1;entryDx=0;entryDy=0;exitX=0.5;exitY=0;exitDx=0;exitDy=0;" parent="1" source="k09L36EYwbLVuz7NXzX2-12" target="k09L36EYwbLVuz7NXzX2-2" edge="1">
          <mxGeometry width="50" height="50" relative="1" as="geometry">
            <mxPoint x="240" y="340" as="sourcePoint" />
            <mxPoint x="280" y="280" as="targetPoint" />
          </mxGeometry>
        </mxCell>
        <mxCell id="k09L36EYwbLVuz7NXzX2-15" value="数据流量" style="rounded=1;whiteSpace=wrap;html=1;" parent="1" vertex="1">
          <mxGeometry x="60" y="350" width="80" height="40" as="geometry" />
        </mxCell>
        <mxCell id="k09L36EYwbLVuz7NXzX2-16" style="rounded=0;orthogonalLoop=1;jettySize=auto;html=1;exitX=1;exitY=0.5;exitDx=0;exitDy=0;entryX=0;entryY=0.5;entryDx=0;entryDy=0;endArrow=none;endFill=0;" parent="1" source="k09L36EYwbLVuz7NXzX2-15" target="k09L36EYwbLVuz7NXzX2-2" edge="1">
          <mxGeometry relative="1" as="geometry">
            <mxPoint x="340" y="200" as="sourcePoint" />
            <mxPoint x="340" y="250" as="targetPoint" />
          </mxGeometry>
        </mxCell>
        <mxCell id="k09L36EYwbLVuz7NXzX2-17" value="MAC地址" style="rounded=1;whiteSpace=wrap;html=1;" parent="1" vertex="1">
          <mxGeometry x="140" y="140" width="80" height="40" as="geometry" />
        </mxCell>
        <mxCell id="k09L36EYwbLVuz7NXzX2-18" style="rounded=0;orthogonalLoop=1;jettySize=auto;html=1;exitX=0.5;exitY=1;exitDx=0;exitDy=0;entryX=0.5;entryY=0;entryDx=0;entryDy=0;endArrow=none;endFill=0;" parent="1" source="k09L36EYwbLVuz7NXzX2-17" target="k09L36EYwbLVuz7NXzX2-1" edge="1">
          <mxGeometry relative="1" as="geometry">
            <mxPoint x="179.5" y="180" as="sourcePoint" />
            <mxPoint x="239.5" y="220" as="targetPoint" />
          </mxGeometry>
        </mxCell>
        <mxCell id="k09L36EYwbLVuz7NXzX2-19" value="计费开始时间" style="rounded=1;whiteSpace=wrap;html=1;" parent="1" vertex="1">
          <mxGeometry x="239" y="140" width="80" height="40" as="geometry" />
        </mxCell>
        <mxCell id="k09L36EYwbLVuz7NXzX2-20" style="rounded=0;orthogonalLoop=1;jettySize=auto;html=1;exitX=0.5;exitY=1;exitDx=0;exitDy=0;entryX=0.5;entryY=0;entryDx=0;entryDy=0;endArrow=none;endFill=0;" parent="1" source="k09L36EYwbLVuz7NXzX2-19" target="k09L36EYwbLVuz7NXzX2-1" edge="1">
          <mxGeometry relative="1" as="geometry">
            <mxPoint x="179.5" y="190" as="sourcePoint" />
            <mxPoint x="239.5" y="220" as="targetPoint" />
          </mxGeometry>
        </mxCell>
        <mxCell id="k09L36EYwbLVuz7NXzX2-21" value="计费结束时间" style="rounded=1;whiteSpace=wrap;html=1;" parent="1" vertex="1">
          <mxGeometry x="329" y="140" width="80" height="40" as="geometry" />
        </mxCell>
        <mxCell id="k09L36EYwbLVuz7NXzX2-23" style="rounded=0;orthogonalLoop=1;jettySize=auto;html=1;exitX=0.5;exitY=1;exitDx=0;exitDy=0;endArrow=none;endFill=0;entryX=0.5;entryY=0;entryDx=0;entryDy=0;" parent="1" source="k09L36EYwbLVuz7NXzX2-21" target="k09L36EYwbLVuz7NXzX2-1" edge="1">
          <mxGeometry relative="1" as="geometry">
            <mxPoint x="269.5" y="190" as="sourcePoint" />
            <mxPoint x="229.5" y="210" as="targetPoint" />
          </mxGeometry>
        </mxCell>
        <mxCell id="k09L36EYwbLVuz7NXzX2-43" value="" style="edgeStyle=none;rounded=0;orthogonalLoop=1;jettySize=auto;html=1;endArrow=none;endFill=0;" parent="1" source="k09L36EYwbLVuz7NXzX2-26" target="k09L36EYwbLVuz7NXzX2-12" edge="1">
          <mxGeometry relative="1" as="geometry" />
        </mxCell>
        <mxCell id="k09L36EYwbLVuz7NXzX2-26" value="ip源地址" style="rounded=1;whiteSpace=wrap;html=1;" parent="1" vertex="1">
          <mxGeometry x="370" y="440" width="80" height="40" as="geometry" />
        </mxCell>
        <mxCell id="k09L36EYwbLVuz7NXzX2-44" value="" style="edgeStyle=none;rounded=0;orthogonalLoop=1;jettySize=auto;html=1;endArrow=none;endFill=0;" parent="1" source="k09L36EYwbLVuz7NXzX2-28" target="k09L36EYwbLVuz7NXzX2-12" edge="1">
          <mxGeometry relative="1" as="geometry" />
        </mxCell>
        <mxCell id="k09L36EYwbLVuz7NXzX2-28" value="ip目的地址" style="rounded=1;whiteSpace=wrap;html=1;" parent="1" vertex="1">
          <mxGeometry x="370" y="490" width="80" height="40" as="geometry" />
        </mxCell>
        <mxCell id="k09L36EYwbLVuz7NXzX2-46" value="" style="edgeStyle=none;rounded=0;orthogonalLoop=1;jettySize=auto;html=1;endArrow=none;endFill=0;" parent="1" source="k09L36EYwbLVuz7NXzX2-30" target="k09L36EYwbLVuz7NXzX2-12" edge="1">
          <mxGeometry relative="1" as="geometry" />
        </mxCell>
        <mxCell id="k09L36EYwbLVuz7NXzX2-30" value="源端口" style="rounded=1;whiteSpace=wrap;html=1;" parent="1" vertex="1">
          <mxGeometry x="10" y="490" width="80" height="40" as="geometry" />
        </mxCell>
        <mxCell id="k09L36EYwbLVuz7NXzX2-47" value="" style="edgeStyle=none;rounded=0;orthogonalLoop=1;jettySize=auto;html=1;endArrow=none;endFill=0;" parent="1" source="k09L36EYwbLVuz7NXzX2-31" target="k09L36EYwbLVuz7NXzX2-12" edge="1">
          <mxGeometry relative="1" as="geometry" />
        </mxCell>
        <mxCell id="k09L36EYwbLVuz7NXzX2-31" value="目的端口" style="rounded=1;whiteSpace=wrap;html=1;" parent="1" vertex="1">
          <mxGeometry x="10" y="540" width="80" height="40" as="geometry" />
        </mxCell>
        <mxCell id="k09L36EYwbLVuz7NXzX2-52" value="" style="edgeStyle=none;rounded=0;orthogonalLoop=1;jettySize=auto;html=1;endArrow=none;endFill=0;" parent="1" source="k09L36EYwbLVuz7NXzX2-34" target="k09L36EYwbLVuz7NXzX2-12" edge="1">
          <mxGeometry relative="1" as="geometry" />
        </mxCell>
        <mxCell id="k09L36EYwbLVuz7NXzX2-34" value="数据长度" style="rounded=1;whiteSpace=wrap;html=1;" parent="1" vertex="1">
          <mxGeometry x="370" y="545" width="80" height="40" as="geometry" />
        </mxCell>
        <mxCell id="k09L36EYwbLVuz7NXzX2-42" value="" style="edgeStyle=none;rounded=0;orthogonalLoop=1;jettySize=auto;html=1;endArrow=none;endFill=0;" parent="1" source="k09L36EYwbLVuz7NXzX2-38" target="k09L36EYwbLVuz7NXzX2-12" edge="1">
          <mxGeometry relative="1" as="geometry" />
        </mxCell>
        <mxCell id="k09L36EYwbLVuz7NXzX2-38" value="id" style="rounded=1;whiteSpace=wrap;html=1;" parent="1" vertex="1">
          <mxGeometry x="10" y="440" width="80" height="40" as="geometry" />
        </mxCell>
        <mxCell id="k09L36EYwbLVuz7NXzX2-69" value="应用" style="rounded=0;whiteSpace=wrap;html=1;fontSize=12;" parent="1" vertex="1">
          <mxGeometry x="5" y="690" width="120" height="60" as="geometry" />
        </mxCell>
        <mxCell id="k09L36EYwbLVuz7NXzX2-72" value="1" style="edgeStyle=none;rounded=0;orthogonalLoop=1;jettySize=auto;html=1;fontSize=12;endArrow=none;endFill=0;entryX=1;entryY=1;entryDx=0;entryDy=0;" parent="1" source="k09L36EYwbLVuz7NXzX2-70" target="k09L36EYwbLVuz7NXzX2-97" edge="1">
          <mxGeometry relative="1" as="geometry">
            <mxPoint x="304" y="640" as="targetPoint" />
          </mxGeometry>
        </mxCell>
        <mxCell id="k09L36EYwbLVuz7NXzX2-70" value="DNS请求" style="rounded=0;whiteSpace=wrap;html=1;fontSize=12;" parent="1" vertex="1">
          <mxGeometry x="329" y="695" width="120" height="60" as="geometry" />
        </mxCell>
        <mxCell id="k09L36EYwbLVuz7NXzX2-76" value="" style="edgeStyle=none;rounded=0;orthogonalLoop=1;jettySize=auto;html=1;fontSize=12;endArrow=none;endFill=0;" parent="1" source="k09L36EYwbLVuz7NXzX2-73" target="k09L36EYwbLVuz7NXzX2-69" edge="1">
          <mxGeometry relative="1" as="geometry" />
        </mxCell>
        <mxCell id="k09L36EYwbLVuz7NXzX2-73" value="应用名" style="rounded=1;whiteSpace=wrap;html=1;" parent="1" vertex="1">
          <mxGeometry x="70" y="780" width="80" height="40" as="geometry" />
        </mxCell>
        <mxCell id="k09L36EYwbLVuz7NXzX2-75" value="" style="edgeStyle=none;rounded=0;orthogonalLoop=1;jettySize=auto;html=1;fontSize=12;endArrow=none;endFill=0;" parent="1" source="k09L36EYwbLVuz7NXzX2-74" target="k09L36EYwbLVuz7NXzX2-69" edge="1">
          <mxGeometry relative="1" as="geometry" />
        </mxCell>
        <mxCell id="k09L36EYwbLVuz7NXzX2-74" value="id" style="rounded=1;whiteSpace=wrap;html=1;" parent="1" vertex="1">
          <mxGeometry x="-20" y="780" width="80" height="40" as="geometry" />
        </mxCell>
        <mxCell id="k09L36EYwbLVuz7NXzX2-78" value="" style="edgeStyle=none;rounded=0;orthogonalLoop=1;jettySize=auto;html=1;fontSize=12;endArrow=none;endFill=0;" parent="1" source="k09L36EYwbLVuz7NXzX2-77" target="k09L36EYwbLVuz7NXzX2-70" edge="1">
          <mxGeometry relative="1" as="geometry" />
        </mxCell>
        <mxCell id="k09L36EYwbLVuz7NXzX2-77" value="id" style="rounded=1;whiteSpace=wrap;html=1;" parent="1" vertex="1">
          <mxGeometry x="230" y="785" width="80" height="40" as="geometry" />
        </mxCell>
        <mxCell id="k09L36EYwbLVuz7NXzX2-80" value="" style="edgeStyle=none;rounded=0;orthogonalLoop=1;jettySize=auto;html=1;fontSize=12;endArrow=none;endFill=0;" parent="1" source="k09L36EYwbLVuz7NXzX2-79" target="k09L36EYwbLVuz7NXzX2-70" edge="1">
          <mxGeometry relative="1" as="geometry" />
        </mxCell>
        <mxCell id="k09L36EYwbLVuz7NXzX2-79" value="类型" style="rounded=1;whiteSpace=wrap;html=1;" parent="1" vertex="1">
          <mxGeometry x="320" y="785" width="80" height="40" as="geometry" />
        </mxCell>
        <mxCell id="k09L36EYwbLVuz7NXzX2-82" style="edgeStyle=none;rounded=0;orthogonalLoop=1;jettySize=auto;html=1;fontSize=12;endArrow=none;endFill=0;" parent="1" source="k09L36EYwbLVuz7NXzX2-81" target="k09L36EYwbLVuz7NXzX2-70" edge="1">
          <mxGeometry relative="1" as="geometry" />
        </mxCell>
        <mxCell id="k09L36EYwbLVuz7NXzX2-81" value="响应" style="rounded=1;whiteSpace=wrap;html=1;" parent="1" vertex="1">
          <mxGeometry x="410" y="785" width="80" height="40" as="geometry" />
        </mxCell>
        <mxCell id="k09L36EYwbLVuz7NXzX2-86" style="edgeStyle=none;rounded=0;orthogonalLoop=1;jettySize=auto;html=1;fontSize=12;endArrow=none;endFill=0;" parent="1" source="k09L36EYwbLVuz7NXzX2-85" target="k09L36EYwbLVuz7NXzX2-70" edge="1">
          <mxGeometry relative="1" as="geometry" />
        </mxCell>
        <mxCell id="k09L36EYwbLVuz7NXzX2-85" value="请求域名" style="rounded=1;whiteSpace=wrap;html=1;" parent="1" vertex="1">
          <mxGeometry x="500" y="785" width="80" height="40" as="geometry" />
        </mxCell>
        <mxCell id="k09L36EYwbLVuz7NXzX2-95" value="1" style="edgeStyle=none;rounded=0;orthogonalLoop=1;jettySize=auto;html=1;entryX=0.5;entryY=1;entryDx=0;entryDy=0;fontSize=12;endArrow=none;endFill=0;" parent="1" source="k09L36EYwbLVuz7NXzX2-94" target="k09L36EYwbLVuz7NXzX2-12" edge="1">
          <mxGeometry relative="1" as="geometry">
            <mxPoint x="169.99999999999977" y="750" as="targetPoint" />
          </mxGeometry>
        </mxCell>
        <mxCell id="k09L36EYwbLVuz7NXzX2-96" value="1" style="edgeStyle=none;rounded=0;orthogonalLoop=1;jettySize=auto;html=1;entryX=0.5;entryY=0;entryDx=0;entryDy=0;fontSize=12;endArrow=none;endFill=0;" parent="1" source="k09L36EYwbLVuz7NXzX2-94" target="k09L36EYwbLVuz7NXzX2-69" edge="1">
          <mxGeometry relative="1" as="geometry" />
        </mxCell>
        <mxCell id="k09L36EYwbLVuz7NXzX2-94" value="&lt;font style=&quot;font-size: 12px;&quot;&gt;属于&lt;/font&gt;" style="rhombus;whiteSpace=wrap;html=1;fontSize=16;" parent="1" vertex="1">
          <mxGeometry x="100" y="580" width="80" height="80" as="geometry" />
        </mxCell>
        <mxCell id="k09L36EYwbLVuz7NXzX2-98" value="1" style="edgeStyle=none;rounded=0;orthogonalLoop=1;jettySize=auto;html=1;entryX=0.5;entryY=1;entryDx=0;entryDy=0;fontSize=12;endArrow=none;endFill=0;" parent="1" source="k09L36EYwbLVuz7NXzX2-97" target="k09L36EYwbLVuz7NXzX2-12" edge="1">
          <mxGeometry relative="1" as="geometry">
            <mxPoint x="289.9999999999998" y="750" as="targetPoint" />
          </mxGeometry>
        </mxCell>
        <mxCell id="k09L36EYwbLVuz7NXzX2-97" value="&lt;font style=&quot;font-size: 12px;&quot;&gt;属于&lt;/font&gt;" style="rhombus;whiteSpace=wrap;html=1;fontSize=16;" parent="1" vertex="1">
          <mxGeometry x="269.5" y="585" width="80" height="80" as="geometry" />
        </mxCell>
        <mxCell id="k09L36EYwbLVuz7NXzX2-100" value="" style="edgeStyle=none;rounded=0;orthogonalLoop=1;jettySize=auto;html=1;fontSize=12;endArrow=none;endFill=0;" parent="1" source="k09L36EYwbLVuz7NXzX2-99" target="k09L36EYwbLVuz7NXzX2-2" edge="1">
          <mxGeometry relative="1" as="geometry" />
        </mxCell>
        <mxCell id="k09L36EYwbLVuz7NXzX2-99" value="时间" style="rounded=1;whiteSpace=wrap;html=1;" parent="1" vertex="1">
          <mxGeometry x="319" y="350" width="80" height="40" as="geometry" />
        </mxCell>
      </root>
    </mxGraphModel>
  </diagram>
</mxfile>
